<svg xmlns="http://www.w3.org/2000/svg" width="89" height="88" fill="none" fill-rule="evenodd"><rect width="38" height="86" x="26" y="1" stroke="#6747c7" stroke-width="2" rx="4"/><g fill="#6747c7"><rect width="24" height="4" x="33" y="24" rx="2"/><rect width="24" height="8" x="33" y="12" rx="2"/><rect width="24" height="4" x="33" y="32" rx="2"/><rect width="16" height="2" x="41" y="53" rx="1"/><rect width="16" height="2" x="41" y="59" rx="1"/><rect width="4" height="4" x="33" y="52" rx="2"/><rect width="4" height="4" x="33" y="58" rx="2"/><rect width="16" height="2" x="41" y="65" rx="1"/><rect width="4" height="4" x="33" y="64" rx="2"/><rect width="16" height="2" x="41" y="71" rx="1"/><rect width="4" height="4" x="33" y="70" rx="2"/></g><path stroke="#6747c7" stroke-width="2" d="M26 79V9H4a3 3 0 0 0-3 3v64a3 3 0 0 0 3 3h22z"/><g fill="#6747c7"><rect width="19" height="3" x="7" y="28" rx="1.5"/><rect width="19" height="7" x="7" y="18" rx="2"/><rect width="13" height="2" x="13" y="51" rx="1"/><rect width="13" height="2" x="13" y="56" rx="1"/><rect width="13" height="2" x="13" y="61" rx="1"/><rect width="3" height="3" x="7" y="51" rx="1.5"/><rect width="3" height="3" x="7" y="56" rx="1.5"/><rect width="3" height="3" x="7" y="61" rx="1.5"/></g><path stroke="#6747c7" stroke-width="2" d="M64 9v70h21a3 3 0 0 0 3-3V12a3 3 0 0 0-3-3H64z"/><g fill="#6747c7"><rect width="19" height="3" x="64" y="28" rx="1.5"/><rect width="19" height="7" x="64" y="18" rx="2"/><rect width="19" height="3" x="64" y="34" rx="1.5"/><rect width="13" height="2" x="70" y="51" rx="1"/><rect width="13" height="2" x="70" y="56" rx="1"/><rect width="3" height="3" x="64" y="51" rx="1.5"/><rect width="3" height="3" x="64" y="56" rx="1.5"/><rect width="13" height="2" x="70" y="61" rx="1"/><rect width="3" height="3" x="64" y="60" rx="1.5"/><rect width="13" height="2" x="70" y="66" rx="1"/><rect width="3" height="3" x="64" y="65" rx="1.5"/></g></svg>